<svg xmlns="http://www.w3.org/2000/svg" xmlns:xlink="http://www.w3.org/1999/xlink" width="398" height="169.345" viewBox="0 0 398 169.345">
  <defs>
    <clipPath id="clip-path">
      <path id="Path_3" data-name="Path 3" d="M0,59.731H398V-109.614H0Z" transform="translate(0 109.614)" fill="#fff"/>
    </clipPath>
  </defs>
  <g id="Group_78" data-name="Group 78" transform="translate(0 109.614)">
    <g id="Group_3" data-name="Group 3" transform="translate(0 -109.614)" clip-path="url(#clip-path)">
      <g id="Group_1" data-name="Group 1" transform="translate(0 146.578)">
        <path id="Path_1" data-name="Path 1" d="M0,0H4.981A6.415,6.415,0,0,1,7.014.294a4.242,4.242,0,0,1,1.468.8A3.428,3.428,0,0,1,9.373,2.29a3.625,3.625,0,0,1,.3,1.488A2.918,2.918,0,0,1,9.395,5.1a3.6,3.6,0,0,1-.663.945,2.9,2.9,0,0,1-.762.564,1.5,1.5,0,0,1-.6.185,3.847,3.847,0,0,1,.913.238,3.235,3.235,0,0,1,.99.61,3.446,3.446,0,0,1,.794,1.078,3.671,3.671,0,0,1,.326,1.622,4.25,4.25,0,0,1-.414,1.971A3.418,3.418,0,0,1,8.84,13.6a4.779,4.779,0,0,1-1.718.7,10.384,10.384,0,0,1-2.141.207H0ZM4.85,5.784a3.746,3.746,0,0,0,.8-.087,2,2,0,0,0,.708-.3,1.614,1.614,0,0,0,.5-.544,1.657,1.657,0,0,0,.185-.827A1.608,1.608,0,0,0,6.852,3.2a1.564,1.564,0,0,0-.513-.522A2.094,2.094,0,0,0,5.633,2.4a4.077,4.077,0,0,0-.783-.076H2.631V5.784Zm.11,6.393a7.3,7.3,0,0,0,.859-.054,2.6,2.6,0,0,0,.881-.261,1.856,1.856,0,0,0,.7-.609,1.877,1.877,0,0,0,.283-1.1A1.851,1.851,0,0,0,7.4,9.1a2.005,2.005,0,0,0-.674-.632,2.82,2.82,0,0,0-.882-.315,5.057,5.057,0,0,0-.89-.087H2.631v4.109Z" fill="#fff"/>
      </g>
      <g id="Group_2" data-name="Group 2" transform="translate(11.113 150.883)">
        <path id="Path_2" data-name="Path 2" d="M.552,4.311a4.926,4.926,0,0,0,.479.337,1.215,1.215,0,0,0,.652.164,1.043,1.043,0,0,0,.859-.436,5.875,5.875,0,0,0,.708-1.349L3.575,2.2-1.013-7.911H1.944L4.858-.93,7.424-7.911h2.806L5.967,2.289q-.306.76-.609,1.565a7.772,7.772,0,0,1-.751,1.489,3.836,3.836,0,0,1-1.1,1.12A2.912,2.912,0,0,1,1.857,6.9,4.329,4.329,0,0,1,.411,6.692,3.24,3.24,0,0,1-.6,6.115Z" transform="translate(1.013 7.911)" fill="#fff"/>
      </g>
    </g>
    <g id="Group_4" data-name="Group 4" transform="translate(27.748 36.964)">
      <path id="Path_4" data-name="Path 4" d="M.245,0H2.79L6.813,6.85,10.769,0h2.544l.7,14.5H11.336L10.857,4.457,7.378,10.373H6.094L2.593,4.61,2.115,14.5H-.45Z" transform="translate(0.45)" fill="#fff"/>
    </g>
    <g id="Group_6" data-name="Group 6" transform="translate(0 -109.614)" clip-path="url(#clip-path)">
      <g id="Group_5" data-name="Group 5" transform="translate(44.166 150.535)">
        <path id="Path_5" data-name="Path 5" d="M2.355,3.383a3.506,3.506,0,0,1-1.262.891A4.447,4.447,0,0,1-.8,4.665a4.145,4.145,0,0,1-1.25-.195,3.552,3.552,0,0,1-1.131-.6,3,3,0,0,1-.827-1.034,3.268,3.268,0,0,1-.315-1.478A3.564,3.564,0,0,1-4-.194a3.239,3.239,0,0,1,.913-1.154,4.063,4.063,0,0,1,1.414-.706A6.568,6.568,0,0,1,.159-2.293c.2,0,.426,0,.672.011s.487.019.718.034l.8.043v-.239a1.387,1.387,0,0,0-.609-1.2A2.666,2.666,0,0,0,.159-4.076a4.451,4.451,0,0,0-1.741.283,7.675,7.675,0,0,0-1.151.609l-1.176-1.74q.306-.218.7-.445A5.362,5.362,0,0,1-2.3-5.783a7.7,7.7,0,0,1,1.207-.3,9.5,9.5,0,0,1,1.6-.121,5.491,5.491,0,0,1,1.772.272,4.079,4.079,0,0,1,1.36.762A3.335,3.335,0,0,1,4.508-4a3.638,3.638,0,0,1,.3,1.491V4.339H2.419Zm0-3.654C2.094-.285,1.84-.3,1.593-.314c-.2-.014-.416-.025-.641-.032S.535-.357.376-.357a2.459,2.459,0,0,0-1.74.49,1.523,1.523,0,0,0-.5,1.12A1.23,1.23,0,0,0-1.4,2.274a2.188,2.188,0,0,0,1.381.371,2.576,2.576,0,0,0,.881-.153,2.6,2.6,0,0,0,.751-.414,2.257,2.257,0,0,0,.531-.607A1.433,1.433,0,0,0,2.355.73Z" transform="translate(4.321 6.208)" fill="#fff"/>
      </g>
    </g>
    <path id="Path_7" data-name="Path 7" d="M35.471-14.737h2.435v5.044H35.471Z" transform="translate(19.329 51.701)" fill="#fff"/>
    <g id="Group_9" data-name="Group 9" transform="translate(0 -109.614)" clip-path="url(#clip-path)">
      <g id="Group_7" data-name="Group 7" transform="translate(58.56 150.535)">
        <path id="Path_8" data-name="Path 8" d="M2.355,3.383a3.534,3.534,0,0,1-1.262.891A4.457,4.457,0,0,1-.8,4.665,4.155,4.155,0,0,1-2.049,4.47a3.584,3.584,0,0,1-1.131-.6,3.034,3.034,0,0,1-.827-1.034,3.268,3.268,0,0,1-.315-1.478A3.586,3.586,0,0,1-4-.194a3.226,3.226,0,0,1,.915-1.154,4.05,4.05,0,0,1,1.414-.706A6.557,6.557,0,0,1,.158-2.293c.2,0,.428,0,.674.011s.485.019.718.034l.8.043v-.239a1.388,1.388,0,0,0-.61-1.2A2.663,2.663,0,0,0,.158-4.076a4.442,4.442,0,0,0-1.74.283,7.7,7.7,0,0,0-1.153.609l-1.174-1.74q.3-.218.7-.445A5.326,5.326,0,0,1-2.3-5.783a7.681,7.681,0,0,1,1.205-.3,9.515,9.515,0,0,1,1.6-.121,5.5,5.5,0,0,1,1.772.272,4.079,4.079,0,0,1,1.36.762A3.313,3.313,0,0,1,4.507-4a3.639,3.639,0,0,1,.3,1.491V4.339H2.42Zm0-3.654C2.094-.285,1.841-.3,1.594-.314c-.2-.014-.417-.025-.641-.032S.535-.357.376-.357a2.464,2.464,0,0,0-1.741.49,1.527,1.527,0,0,0-.5,1.12A1.23,1.23,0,0,0-1.4,2.274a2.183,2.183,0,0,0,1.38.371,2.591,2.591,0,0,0,.882-.153,2.59,2.59,0,0,0,.749-.414,2.236,2.236,0,0,0,.533-.607A1.433,1.433,0,0,0,2.355.73Z" transform="translate(4.322 6.208)" fill="#fff"/>
      </g>
      <g id="Group_8" data-name="Group 8" transform="translate(70.174 150.666)">
        <path id="Path_9" data-name="Path 9" d="M0,.077H2.456l.065,1.153A6.063,6.063,0,0,1,2.989.772,3.617,3.617,0,0,1,3.641.326,4.015,4.015,0,0,1,5.588-.141,3.665,3.665,0,0,1,8.5,1a4.5,4.5,0,0,1,1,3.077v6.2H6.937V4.1A2.047,2.047,0,0,0,6.4,2.587a1.874,1.874,0,0,0-1.381-.531,2.371,2.371,0,0,0-.978.205,2.293,2.293,0,0,0-.783.578A2.751,2.751,0,0,0,2.75,3.7a2.945,2.945,0,0,0-.185,1.054v5.523H0Z" transform="translate(0 0.141)" fill="#fff"/>
      </g>
    </g>
    <path id="Path_11" data-name="Path 11" d="M60.315-14.737H62.75v5.044H60.315Zm3.7,0h2.436v5.044H64.01Z" transform="translate(32.867 51.701)" fill="#fff"/>
    <g id="Group_14" data-name="Group 14" transform="translate(0 -109.614)" clip-path="url(#clip-path)">
      <g id="Group_10" data-name="Group 10" transform="translate(100.487 140.99)">
        <path id="Path_12" data-name="Path 12" d="M1.534.375A30.229,30.229,0,0,1-2.815,1.789V.723A30.254,30.254,0,0,0,1.534-.689Zm.11,2A30.385,30.385,0,0,1-2.705,3.79V2.724A29.973,29.973,0,0,0,1.644,1.31Z" transform="translate(2.815 0.689)" fill="#fff"/>
      </g>
      <g id="Group_11" data-name="Group 11" transform="translate(101.662 146.816)">
        <path id="Path_13" data-name="Path 13" d="M1.411,5.032a4.4,4.4,0,0,1-2.849-.816A2.9,2.9,0,0,1-2.459,1.879L-2.59-8.842l2.219-.392L-.458.834A1.583,1.583,0,0,0-.024,2.086a2.17,2.17,0,0,0,1.435.38l.348.218v2.13Z" transform="translate(2.59 9.234)" fill="#fff"/>
      </g>
      <g id="Group_12" data-name="Group 12" transform="translate(105.316 152.015)">
        <path id="Path_14" data-name="Path 14" d="M4.011,3.2C3.491,3.2,3,3.177,2.533,3.133A9.013,9.013,0,0,1,1.186,2.9,9.781,9.781,0,0,1-.1,2.491a11.314,11.314,0,0,1-1.3-.618A10.519,10.519,0,0,1-7.013,3.2l-.348-.218V.85l.348-.218q.978,0,1.815-.054A15.336,15.336,0,0,0-3.6.393a14.073,14.073,0,0,1-2.48-3.023l.348-2.021a6.434,6.434,0,0,1,1.947-.891,8.692,8.692,0,0,1,2.4-.326,6.575,6.575,0,0,1,3.263.684,2.077,2.077,0,0,1,1.2,1.859A3.285,3.285,0,0,1,2.468-1.5,9.229,9.229,0,0,1,.685.393,13.616,13.616,0,0,0,2.174.578q.772.053,1.837.054L4.359.85V2.98ZM-4.013-2.955a5.825,5.825,0,0,0,.533.749q.315.382.663.729A8.376,8.376,0,0,0-2.1-.836a6.507,6.507,0,0,0,.7.49A8.852,8.852,0,0,0-.588-.9a10.119,10.119,0,0,0,.827-.7A7.368,7.368,0,0,0,.88-2.271a.907.907,0,0,0,.261-.49c0-.216-.243-.4-.728-.544a6.418,6.418,0,0,0-1.8-.216,7.514,7.514,0,0,0-1.543.151,2.987,2.987,0,0,0-1.088.414" transform="translate(7.361 5.869)" fill="#fff"/>
      </g>
      <g id="Group_13" data-name="Group 13" transform="translate(116.339 152.492)">
        <path id="Path_15" data-name="Path 15" d="M2.531,3.091A4.6,4.6,0,0,1,.487,2.634,4.942,4.942,0,0,1-1.166,1.307a4.042,4.042,0,0,1-1.369,1.23,3.8,3.8,0,0,1-1.761.38L-4.645,2.7V.568L-4.3.351A3.25,3.25,0,0,0-3.557.275,1.753,1.753,0,0,0-2.97.025a2.129,2.129,0,0,0,.49-.467,6.709,6.709,0,0,0,.49-.751L-.84-3.215Q.532-5.671,2.466-5.673a2.775,2.775,0,0,1,1.414.392A3.953,3.953,0,0,1,5.054-4.227a5.347,5.347,0,0,1,.794,1.556A6,6,0,0,1,6.142-.78a4.011,4.011,0,0,1-.956,2.849A3.462,3.462,0,0,1,2.531,3.091M-.078-.671A3.221,3.221,0,0,0,1.1.286,3.4,3.4,0,0,0,2.641.655a1.615,1.615,0,0,0,1.2-.434A1.559,1.559,0,0,0,4.271-.932a2.4,2.4,0,0,0-.151-.859,2.382,2.382,0,0,0-.425-.718A2.011,2.011,0,0,0,3.075-3a1.654,1.654,0,0,0-.74-.173Q1.183-3.172.356-1.54Z" transform="translate(4.645 5.673)" fill="#fff"/>
      </g>
    </g>
    <path id="Path_17" data-name="Path 17" d="M82.5-14.737h2.436v5.044H82.5Zm3.7,0H88.63v5.044H86.194Z" transform="translate(44.954 51.701)" fill="#fff"/>
    <g id="Group_25" data-name="Group 25" transform="translate(0 -109.614)" clip-path="url(#clip-path)">
      <g id="Group_15" data-name="Group 15" transform="translate(136.54 150.688)">
        <path id="Path_18" data-name="Path 18" d="M3.6,1.365a14.1,14.1,0,0,1,.575,1.392q.273.76.47,1.522c.128.507.235,1,.315,1.489a8.21,8.21,0,0,1,.119,1.295A5,5,0,0,1,4.642,9.15a4.908,4.908,0,0,1-1.208,1.642,5.562,5.562,0,0,1-1.848,1.066,7.09,7.09,0,0,1-2.361.38,7.565,7.565,0,0,1-2.4-.36,5.243,5.243,0,0,1-1.838-1.032,4.612,4.612,0,0,1-1.173-1.61A5.148,5.148,0,0,1-6.6,7.128a7.24,7.24,0,0,1,.468-2.512A8.3,8.3,0,0,1-4.841,2.3l1.37.848A6.443,6.443,0,0,0-4.492,6.432a2.945,2.945,0,0,0,1,2.359A4.039,4.039,0,0,0-.775,9.65,6.3,6.3,0,0,0,.736,9.476,4.751,4.751,0,0,0,1.977,9a2.935,2.935,0,0,0,.848-.7,1.326,1.326,0,0,0,.315-.848,4.909,4.909,0,0,0-.108-.913,11.062,11.062,0,0,0-.317-1.2c-.137-.436-.3-.895-.5-1.381s-.409-.981-.641-1.491ZM-.775.8-2.4-.853l1.63-1.652L.857-.853Zm7.46,7.09A4.667,4.667,0,0,1,4.532,7.4a2.821,2.821,0,0,1-1.37-1.534l1.392-1.8q0,1.261,2.132,1.259l.346.218V7.671Z" transform="translate(6.602 2.505)" fill="#fff"/>
      </g>
      <g id="Group_16" data-name="Group 16" transform="translate(149.479 152.492)">
        <path id="Path_19" data-name="Path 19" d="M2.531,3.091A4.6,4.6,0,0,1,.487,2.634,4.936,4.936,0,0,1-1.164,1.307a4.06,4.06,0,0,1-1.37,1.23,3.8,3.8,0,0,1-1.761.38L-4.645,2.7V.568L-4.3.351A3.25,3.25,0,0,0-3.557.275,1.753,1.753,0,0,0-2.97.025a2.129,2.129,0,0,0,.49-.467,6.709,6.709,0,0,0,.49-.751L-.838-3.215q1.37-2.456,3.3-2.458a2.775,2.775,0,0,1,1.414.392A3.953,3.953,0,0,1,5.054-4.227a5.347,5.347,0,0,1,.794,1.556A6,6,0,0,1,6.142-.78a4,4,0,0,1-.956,2.849A3.462,3.462,0,0,1,2.531,3.091M-.078-.671A3.214,3.214,0,0,0,1.1.286,3.394,3.394,0,0,0,2.641.655a1.615,1.615,0,0,0,1.2-.434A1.559,1.559,0,0,0,4.271-.932a2.4,2.4,0,0,0-.151-.859,2.382,2.382,0,0,0-.425-.718A2.011,2.011,0,0,0,3.075-3a1.647,1.647,0,0,0-.738-.173Q1.182-3.172.356-1.54Z" transform="translate(4.645 5.673)" fill="#fff"/>
      </g>
      <g id="Group_17" data-name="Group 17" transform="translate(165.876 152.492)">
        <path id="Path_20" data-name="Path 20" d="M4.057,3.03a4.105,4.105,0,0,1-2.654-.8A3.518,3.518,0,0,1-1.2,3.2a4.676,4.676,0,0,1-2-.436A4.931,4.931,0,0,1-4.858,1.506l-.412.828a.5.5,0,0,0-.054.162,1.68,1.68,0,0,0-.011.229l-.023,8.567H-7.295l-.151-8.655A2.947,2.947,0,0,1-7.37,1.91a2.647,2.647,0,0,1,.315-.684L-4.576-3.1q1.414-2.456,3.3-2.458a2.77,2.77,0,0,1,1.415.392A3.967,3.967,0,0,1,1.317-4.114a5.309,5.309,0,0,1,.794,1.556A6,6,0,0,1,2.4-.667c0,.13,0,.258-.011.382s-.019.243-.032.358a2.88,2.88,0,0,0,1.7.391l.348.218v2.13ZM-3.815-.558A3.243,3.243,0,0,0-2.64.4,3.418,3.418,0,0,0-1.1.768,1.61,1.61,0,0,0,.1.332,1.55,1.55,0,0,0,.535-.819a2.387,2.387,0,0,0-.153-.859A2.363,2.363,0,0,0-.043-2.4a2.006,2.006,0,0,0-.618-.49,1.638,1.638,0,0,0-.74-.173q-1.152,0-1.979,1.631Z" transform="translate(7.446 5.56)" fill="#fff"/>
      </g>
      <g id="Group_18" data-name="Group 18" transform="translate(177.031 146.816)">
        <path id="Path_21" data-name="Path 21" d="M3.283,5.032A8.406,8.406,0,0,1,.946,4.749,4.009,4.009,0,0,1-.783,3.706a4.475,4.475,0,0,1-1.9,1,11.488,11.488,0,0,1-2.989.326l-.349-.218V2.684l.349-.218a12.976,12.976,0,0,0,2.217-.151,4.63,4.63,0,0,0,1.37-.436L-4.981-3.428-4.633-5.6q1.849-1.043,3.74-1.957T2.869-9.234L3.3-6.992q-.957.368-1.761.684T0-5.678q-.739.315-1.457.652l-1.5.708L-.176.769A4.361,4.361,0,0,0,.4,1.618a2.094,2.094,0,0,0,.7.511,3.371,3.371,0,0,0,.925.261,8.839,8.839,0,0,0,1.261.076l.348.218v2.13Z" transform="translate(6.025 9.234)" fill="#fff"/>
      </g>
      <g id="Group_19" data-name="Group 19" transform="translate(185.99 154.558)">
        <path id="Path_22" data-name="Path 22" d="M2.661,2.3a5.182,5.182,0,0,1-2.12-.369A2.965,2.965,0,0,1-.751.823a3.02,3.02,0,0,1-1.556,1.12A6.786,6.786,0,0,1-4.536,2.3l-.348-.218V-.047l.348-.218a4.061,4.061,0,0,0,2-.358,1.385,1.385,0,0,0,.7-.924c.028-.175.065-.374.108-.6s.083-.46.119-.708.073-.49.11-.728.068-.453.1-.643l1.871.239Q.313-2.788.259-2.2C.222-1.808.2-1.577.2-1.5Q.2-.264,2.661-.265l.349.218v2.13ZM.574,7.28-.818,5.868-2.208,7.28-3.84,5.627l1.631-1.652L-.818,5.39.574,3.976,2.206,5.627Z" transform="translate(4.884 4.223)" fill="#fff"/>
      </g>
      <g id="Group_20" data-name="Group 20" transform="translate(193.187 147.252)">
        <path id="Path_23" data-name="Path 23" d="M0,4.8V2.671l.348-.218a7.012,7.012,0,0,0,2.4-.337q.9-.338.9-.816a4.39,4.39,0,0,0-.11-.9A11.139,11.139,0,0,0,3.251-.689a12.3,12.3,0,0,0-.445-1.174c-.175-.4-.363-.78-.565-1.142L4.262-4.136a9.3,9.3,0,0,1,.522,1.174c.159.434.3.878.423,1.327A11.045,11.045,0,0,1,5.491-.3a8.143,8.143,0,0,1,.1,1.205,3.731,3.731,0,0,1-1.25,3.121,6.427,6.427,0,0,1-3.991.99ZM4.61-5.506,3.218-6.92,1.826-5.506.195-7.159,1.826-8.811,3.218-7.4,4.61-8.811,6.241-7.159Z" transform="translate(0 8.811)" fill="#fff"/>
      </g>
      <g id="Group_21" data-name="Group 21" transform="translate(200.081 141.162)">
        <path id="Path_24" data-name="Path 24" d="M1.35,1.3a14.649,14.649,0,0,0-1.815.229q-.837.165-1.642.4l-.369-.89c.392-.159.746-.29,1.064-.392A1.341,1.341,0,0,1-2.129-.595a1.668,1.668,0,0,1,.142-.674A1.819,1.819,0,0,1-1.6-1.846a1.838,1.838,0,0,1,.576-.391A1.785,1.785,0,0,1-.3-2.379a1.769,1.769,0,0,1,1.369.632L.523-1.03a2.157,2.157,0,0,0-.358-.141,1.307,1.307,0,0,0-.38-.054.966.966,0,0,0-.63.195.6.6,0,0,0-.239.479.574.574,0,0,0,.337.5,2.6,2.6,0,0,0,.9.283C.4.189.636.152.862.124s.445-.051.663-.066ZM2.416,17.541a4.4,4.4,0,0,1-2.849-.816,2.9,2.9,0,0,1-1.021-2.337l-.131-10.72L.633,3.275.546,13.344a1.579,1.579,0,0,0,.434,1.25,2.158,2.158,0,0,0,1.435.382l.348.216v2.132Z" transform="translate(2.477 2.379)" fill="#fff"/>
      </g>
      <g id="Group_22" data-name="Group 22" transform="translate(204.539 151.927)">
        <path id="Path_25" data-name="Path 25" d="M1.557,4.985.165,3.572l-1.39,1.414L-2.857,3.332l1.631-1.652L.165,3.093,1.557,1.681,3.188,3.332ZM-2.77-.212V-2.344l.348-.218A7.039,7.039,0,0,0-.021-2.9c.6-.226.9-.5.9-.816a4.475,4.475,0,0,0-.107-.9C.7-4.956.6-5.318.48-5.7A12.319,12.319,0,0,0,.034-6.876,12.653,12.653,0,0,0-.53-8.018L1.492-9.149a8.992,8.992,0,0,1,.522,1.174c.159.434.3.878.423,1.326A11.481,11.481,0,0,1,2.72-5.311a8.4,8.4,0,0,1,.1,1.207A3.74,3.74,0,0,1,1.568-.984a6.43,6.43,0,0,1-3.991.99Z" transform="translate(2.857 9.149)" fill="#fff"/>
      </g>
      <g id="Group_23" data-name="Group 23" transform="translate(0.001 28.474)">
        <path id="Path_26" data-name="Path 26" d="M5.863,5.235A16.635,16.635,0,0,1,.112,4.141,2.7,2.7,0,0,1-1.73,1.669,2.233,2.233,0,0,1-.522-.287,6.062,6.062,0,0,1,2.7-1.035,8.074,8.074,0,0,1,7.129.172L10.58-4.488A10.083,10.083,0,0,0,6.9-8.254,9.815,9.815,0,0,0,1.837-9.606a9.662,9.662,0,0,0-3.912.8A9.964,9.964,0,0,0-5.3-6.558,10.912,10.912,0,0,0-7.482-3.221a10.188,10.188,0,0,0-.8,4.026A8.8,8.8,0,0,0-7.338,5a9.541,9.541,0,0,0,2.56,3.048q-1.5.519-2.991,1.123t-2.991,1.236l2.818,6.557a94.211,94.211,0,0,1,10.01-2.358A94.011,94.011,0,0,1,12.075,13.4l1.208-9.146q-1.842.116-3.711.374t-3.709.6" transform="translate(10.76 9.606)" fill="#fff"/>
      </g>
      <g id="Group_24" data-name="Group 24" transform="translate(103.25 28.474)">
        <path id="Path_27" data-name="Path 27" d="M6.614,1.826A11.637,11.637,0,0,0,3.364-1.942a7.265,7.265,0,0,0-4.4-1.409A9.446,9.446,0,0,0-5.379-2.344,10.592,10.592,0,0,0-8.8.416a12.954,12.954,0,0,0-2.242,4.2,16.9,16.9,0,0,0-.806,5.322,13.712,13.712,0,0,0,.633,4.256,10.223,10.223,0,0,0,1.783,3.365,7.925,7.925,0,0,0,2.79,2.186,8.423,8.423,0,0,0,3.652.777,8.108,8.108,0,0,0,5.809-2.243A8.015,8.015,0,0,1-1.9,23.138a28.937,28.937,0,0,1-10.238,1.811l3.394,8.628a20.539,20.539,0,0,0,7.477-1.639,16.7,16.7,0,0,0,5.695-4.055,17.938,17.938,0,0,0,3.624-6.155A23.642,23.642,0,0,0,9.318,13.79a29.88,29.88,0,0,0-.691-6.5A19.984,19.984,0,0,0,6.614,1.826M.977,12.294a11.914,11.914,0,0,1-2.358.23,5.028,5.028,0,0,1-3.107-.834A2.591,2.591,0,0,1-5.581,9.534a3.507,3.507,0,0,1,1.123-2.7A4.2,4.2,0,0,1-1.5,5.795q3.566,0,4.545,5.752a6.978,6.978,0,0,1-2.072.748" transform="translate(12.138 3.351)" fill="#fff"/>
      </g>
    </g>
    <g id="Group_26" data-name="Group 26" transform="translate(144.896 -98.11)">
      <path id="Path_29" data-name="Path 29" d="M4.017,1.988-1.677-3.649-7.372,1.988l5.695,5.637Z" transform="translate(7.372 3.649)" fill="#fff"/>
    </g>
    <g id="Group_27" data-name="Group 27" transform="translate(177.683 -95.06)">
      <path id="Path_30" data-name="Path 30" d="M4.017,1.988-1.677-3.648-7.372,1.988l5.695,5.637Z" transform="translate(7.372 3.648)" fill="#fff"/>
    </g>
    <g id="Group_30" data-name="Group 30" transform="translate(0 -109.614)" clip-path="url(#clip-path)">
      <g id="Group_28" data-name="Group 28" transform="translate(137.936 25.368)">
        <path id="Path_31" data-name="Path 31" d="M8.034,5.255Q6.709,1.63,5.359-2.108T2.741-9.643l-7.879,3.68q1.379,3.914,2.761,7.45T.787,8.936a15.583,15.583,0,0,1-3.28.633q-1.842.171-3.853.171-2.243,0-4.6-.171a31.867,31.867,0,0,1-3.8-.462l2.013,9.779a31.05,31.05,0,0,0,3.825.431q2.329.144,4.516.144a20.146,20.146,0,0,0,5.665-.748A9.426,9.426,0,0,0,5.5,16.241a10.646,10.646,0,0,0,4.17,2.129,18.4,18.4,0,0,0,3.289.49L8.045,5.281a.188.188,0,0,1-.011-.026" transform="translate(14.744 9.643)" fill="#fff"/>
      </g>
      <g id="Group_29" data-name="Group 29" transform="translate(164.703 28.474)">
        <path id="Path_32" data-name="Path 32" d="M10.249,1.664A13.431,13.431,0,0,1,8.407,1.29Q7.46,1.03,6.366.658T3.893-.292A53.375,53.375,0,0,0-2.175-2.449a15.972,15.972,0,0,0-4.055-.6,9.836,9.836,0,0,0-5.868,1.9,12.982,12.982,0,0,0-4.2,5.291l4.6,3.509A5.458,5.458,0,0,1-9.912,6.41a6.153,6.153,0,0,1,2.3-.374,8.541,8.541,0,0,1,1.092.085q.633.086,1.584.312t2.3.652q1.351.426,3.251,1.051-1.268.406-2.416.81t-2.3.868q-2.818,1.1-5.781,1.968a25.448,25.448,0,0,1-7.1.868,17.845,17.845,0,0,1-1.82-.08l3.53,9.75a24.335,24.335,0,0,0,3.5-.437A28.47,28.47,0,0,0-7.3,20.589a35.031,35.031,0,0,0,4.026-1.84Q-1.341,17.711.556,16.62q2.76-1.611,5.781-3.164a32.289,32.289,0,0,1,6.932-2.532V1.78H12.118a14.493,14.493,0,0,1-1.869-.116" transform="translate(18.808 3.053)" fill="#fff"/>
      </g>
    </g>
    <g id="Group_31" data-name="Group 31" transform="translate(202.13 -94.6)">
      <path id="Path_34" data-name="Path 34" d="M.2,13.715H7.336L7.91-25.169l-8.282,1.5Z" transform="translate(0.372 25.169)" fill="#fff"/>
    </g>
    <g id="Group_35" data-name="Group 35" transform="translate(0 -109.614)" clip-path="url(#clip-path)">
      <g id="Group_32" data-name="Group 32" transform="translate(200.576 -0.001)">
        <path id="Path_35" data-name="Path 35" d="M3.388,2.4q-.862.086-1.726.258Q-2.02,2.433-2.019.937a1.107,1.107,0,0,1,.575-.949A2.825,2.825,0,0,1,.11-.385,3.584,3.584,0,0,1,2.18.246L3.733-2A4.7,4.7,0,0,0,2.066-3.78,4.435,4.435,0,0,0-.293-4.413a4.483,4.483,0,0,0-1.869.4A4.957,4.957,0,0,0-3.717-2.918,5.094,5.094,0,0,0-4.752-1.306,5.161,5.161,0,0,0-5.126.65a3.827,3.827,0,0,0,.433,1.842A4.581,4.581,0,0,0-3.457,3.93q-1.381.459-2.761,1.034L-4.9,7.9A37.791,37.791,0,0,1-.236,6.862q2.243-.345,4.775-.518l.575-4.083c-.575.039-1.151.085-1.726.144" transform="translate(6.218 4.413)" fill="#fff"/>
      </g>
      <g id="Group_33" data-name="Group 33" transform="translate(67.664 26.518)">
        <path id="Path_36" data-name="Path 36" d="M8.6,5.681A18.1,18.1,0,0,1,2.268,4.416,3.027,3.027,0,0,1,.255,1.655,2.877,2.877,0,0,1,1.866-.905a7.568,7.568,0,0,1,3.912-.95,8.054,8.054,0,0,1,4.428,1.21l3.453-4.659A10.087,10.087,0,0,0,9.977-9.073a9.817,9.817,0,0,0-5.063-1.352,10.319,10.319,0,0,0-4.4.949,11.256,11.256,0,0,0-3.538,2.56,12.367,12.367,0,0,0-2.387,3.8A12.208,12.208,0,0,0-6.3,1.539a10.185,10.185,0,0,0,1.5,5.58q-1.207.116-2.359.114h-2.3c-.289,0-.556-.011-.819-.023l-5.489,8.214c.122.065.229.148.354.207a13.7,13.7,0,0,0,5.954,1.324q3.163,0,6.472-.289t6.442-.8q3.133-.517,5.925-1.236a39.27,39.27,0,0,0,4.917-1.582l1.151-8.571q-1.784.345-3.481.633T8.6,5.681" transform="translate(15.774 10.425)" fill="#fff"/>
      </g>
      <g id="Group_34" data-name="Group 34" transform="translate(27.84 15.014)">
        <path id="Path_37" data-name="Path 37" d="M15.2,9.17a18.276,18.276,0,0,0-.862-5.695,14.965,14.965,0,0,0-2.388-4.6A11.545,11.545,0,0,0,8.38-4.2a9,9,0,0,0-4.4-1.122A8.1,8.1,0,0,0-.939-3.4,19.038,19.038,0,0,0-5.626,2.382l.632-19.211-8.282,1.5.8,27.666h-2.991a5.155,5.155,0,0,1-3.509-.949,3.6,3.6,0,0,1-.978-2.9l.345-25.309-8.282,1.5.46,28.473a7.956,7.956,0,0,0,3.365,6.529,14.194,14.194,0,0,0,8.6,2.387H-3.326c5.668,0,10.073-.981,13.248-2.917l5.072-7.589a14.785,14.785,0,0,0,.2-2.379M7.459,10.7A4.094,4.094,0,0,1,5.476,11.73a17.419,17.419,0,0,1-3.538.488q-2.157.116-5.264.114h-1.9A23.722,23.722,0,0,1-.8,6.5,6.844,6.844,0,0,1,3.75,4.4a3.648,3.648,0,0,1,1.7.4A4.823,4.823,0,0,1,6.8,5.833,5.036,5.036,0,0,1,7.719,7.3,4.4,4.4,0,0,1,8.063,9a2.42,2.42,0,0,1-.6,1.7" transform="translate(27.887 16.829)" fill="#fff"/>
      </g>
    </g>
    <g id="Group_36" data-name="Group 36" transform="translate(145.336 -27.643)">
      <path id="Path_39" data-name="Path 39" d="M5.706,2.442,1.263-4.482H-10.472L.145,10.765Z" transform="translate(10.472 4.482)" fill="#fff"/>
    </g>
    <g id="Group_37" data-name="Group 37" transform="translate(145.332 -27.644)">
      <path id="Path_40" data-name="Path 40" d="M12.019,0H1.414L-4.345,9.311l-5.491,8.238L-22.056,35.9h10.444l6.944-11.035L2.491,35.9h11.9L.875,16.633Z" transform="translate(22.056)" fill="#fff"/>
    </g>
    <g id="Group_38" data-name="Group 38" transform="translate(253.528 -27.644)">
      <path id="Path_41" data-name="Path 41" d="M4.651,0-8.536,35.9h9.85l2.368-7.43H13.03l-1.987-6.943H5.62L9.765,8.344l3.983,13.187,1.939,6.943L18,35.9H28.283L15.579,0Z" transform="translate(8.536)" fill="#fff"/>
    </g>
    <g id="Group_39" data-name="Group 39" transform="translate(0 -27.644)">
      <path id="Path_42" data-name="Path 42" d="M0,0V8.344H11.034V35.9H20.67V8.344H31.6V0Z" fill="#fff"/>
    </g>
    <g id="Group_40" data-name="Group 40" transform="translate(35.903 -27.644)">
      <path id="Path_43" data-name="Path 43" d="M0,0H9.528V13.133H22.769V0H32.3V35.9H22.769V21.854H9.528V35.9H0Z" fill="#fff"/>
    </g>
    <g id="Group_41" data-name="Group 41" transform="translate(74.659 -27.644)">
      <path id="Path_44" data-name="Path 44" d="M0,0H25.837V8.236H9.528v5.545h13.4v7.751H9.528v6.136H26.968V35.9H0Z" fill="#fff"/>
    </g>
    <g id="Group_42" data-name="Group 42" transform="translate(116.321 -27.644)">
      <path id="Path_45" data-name="Path 45" d="M0,0H25.837V8.236H9.528v5.545h13.4v7.751H9.528v6.136H26.968V35.9H0Z" fill="#fff"/>
    </g>
    <g id="Group_44" data-name="Group 44" transform="translate(0 -109.614)" clip-path="url(#clip-path)">
      <g id="Group_43" data-name="Group 43" transform="translate(179.622 81.001)">
        <path id="Path_46" data-name="Path 46" d="M12.227,10.652A19.494,19.494,0,0,1-3.76,18.24a19.955,19.955,0,0,1-7.59-1.4,17.372,17.372,0,0,1-5.894-3.875,17.543,17.543,0,0,1-3.822-5.922,20.33,20.33,0,0,1-1.372-7.59,20.746,20.746,0,0,1,1.346-7.562,17.8,17.8,0,0,1,3.822-6.028,17.394,17.394,0,0,1,5.92-3.983,19.641,19.641,0,0,1,7.59-1.428,23.569,23.569,0,0,1,8.667,1.562,14.829,14.829,0,0,1,6.728,5.437L5.337-6.2A12.085,12.085,0,0,0,1.731-9.48,9.257,9.257,0,0,0-3.06-10.718,10.283,10.283,0,0,0-7.1-9.965a8.364,8.364,0,0,0-2.988,2.1,9.421,9.421,0,0,0-1.857,3.149,11.494,11.494,0,0,0-.646,3.9,11.462,11.462,0,0,0,.672,3.981A9.443,9.443,0,0,0-10,6.346a8.637,8.637,0,0,0,2.986,2.1,9.746,9.746,0,0,0,3.9.754,10.333,10.333,0,0,0,5.087-1.1A13.582,13.582,0,0,0,5.822,4.623Z" transform="translate(22.438 19.547)" fill="#fff"/>
      </g>
    </g>
    <g id="Group_45" data-name="Group 45" transform="translate(217.787 -27.644)">
      <path id="Path_48" data-name="Path 48" d="M0,0H9.528V13.133H22.769V0H32.3V35.9H22.769V21.854H9.528V35.9H0Z" fill="#fff"/>
    </g>
    <g id="Group_46" data-name="Group 46" transform="translate(293.79 -27.644)">
      <path id="Path_49" data-name="Path 49" d="M0,0H8.665L22.446,20.024V0h9.419V35.9H23.738L9.419,15.287V35.9H0Z" fill="#fff"/>
    </g>
    <g id="Group_47" data-name="Group 47" transform="translate(371.032 -27.644)">
      <path id="Path_50" data-name="Path 50" d="M0,0V35.9H26.968V27.668H9.528V21.532h13.4V13.781H9.528V8.236H25.839V0Z" fill="#fff"/>
    </g>
    <g id="Group_50" data-name="Group 50" transform="translate(0 -109.614)" clip-path="url(#clip-path)">
      <g id="Group_48" data-name="Group 48" transform="translate(330.865 81.002)">
        <path id="Path_51" data-name="Path 51" d="M3.5,5.771a11.077,11.077,0,0,1,.36-1.315,9.562,9.562,0,0,1,1.857-3.23A8.733,8.733,0,0,1,8.709-.954,9.772,9.772,0,0,1,12.8-1.762,8.891,8.891,0,0,1,17.24-.686a16.6,16.6,0,0,1,3.58,2.745L27.01-4.185A14.682,14.682,0,0,0,20.469-9.11,23.421,23.421,0,0,0,12.1-10.59a19.768,19.768,0,0,0-7.562,1.4,17.513,17.513,0,0,0-5.9,3.9A17.569,17.569,0,0,0-5.206.686,19.564,19.564,0,0,0-6.43,5.771Z" transform="translate(6.43 10.59)" fill="#fff"/>
      </g>
      <g id="Group_49" data-name="Group 49" transform="translate(330.719 97.365)">
        <path id="Path_52" data-name="Path 52" d="M6.948,0V7.374h6.245v3.445a9.635,9.635,0,0,1-3.122,1.508,13.1,13.1,0,0,1-3.391.431,10.426,10.426,0,0,1-3.984-.728A8.446,8.446,0,0,1-.32,9.985,9.446,9.446,0,0,1-2.257,6.81a11.768,11.768,0,0,1-.7-4.173c0-.017,0-.034,0-.051H-12.75a22.927,22.927,0,0,0,1.262,7.748A16.1,16.1,0,0,0-7.8,16.283a16.282,16.282,0,0,0,5.9,3.767,21.887,21.887,0,0,0,7.831,1.319,29.866,29.866,0,0,0,8.37-1.211A19.807,19.807,0,0,0,21.7,16.2V0Z" transform="translate(12.75)" fill="#fff"/>
      </g>
    </g>
  </g>
</svg>
