<svg xmlns="http://www.w3.org/2000/svg" xmlns:xlink="http://www.w3.org/1999/xlink" width="257.618" height="109.614" viewBox="0 0 257.618 109.614">
  <defs>
    <clipPath id="clip-path">
      <path id="Path_3" data-name="Path 3" d="M0,0H257.618V-109.614H0Z" fill="none"/>
    </clipPath>
  </defs>
  <g id="Group_51" data-name="Group 51" transform="translate(0 109.614)">
    <g id="Group_3" data-name="Group 3" clip-path="url(#clip-path)">
      <g id="Group_1" data-name="Group 1" transform="translate(0 -14.737)">
        <path id="Path_1" data-name="Path 1" d="M0,0H3.224A4.152,4.152,0,0,1,4.54.19a2.746,2.746,0,0,1,.95.519,2.219,2.219,0,0,1,.577.773,2.346,2.346,0,0,1,.2.963,1.889,1.889,0,0,1-.183.857,2.329,2.329,0,0,1-.429.612,1.88,1.88,0,0,1-.493.365.971.971,0,0,1-.387.12,2.49,2.49,0,0,1,.591.154A2.094,2.094,0,0,1,6,4.948a2.23,2.23,0,0,1,.514.7A2.376,2.376,0,0,1,6.729,6.7a2.751,2.751,0,0,1-.268,1.276,2.213,2.213,0,0,1-.739.831,3.093,3.093,0,0,1-1.112.451,6.721,6.721,0,0,1-1.386.134H0ZM3.139,3.744a2.425,2.425,0,0,0,.521-.056,1.3,1.3,0,0,0,.458-.2,1.045,1.045,0,0,0,.323-.352,1.072,1.072,0,0,0,.12-.535,1.041,1.041,0,0,0-.126-.535A1.013,1.013,0,0,0,4.1,1.731a1.355,1.355,0,0,0-.457-.176,2.639,2.639,0,0,0-.507-.049H1.7V3.744ZM3.21,7.882a4.722,4.722,0,0,0,.556-.035,1.685,1.685,0,0,0,.57-.169,1.2,1.2,0,0,0,.45-.394,1.215,1.215,0,0,0,.183-.711,1.2,1.2,0,0,0-.176-.682,1.3,1.3,0,0,0-.436-.409,1.825,1.825,0,0,0-.571-.2,3.273,3.273,0,0,0-.576-.056H1.7v2.66Z" fill="#989b9b"/>
      </g>
      <g id="Group_2" data-name="Group 2" transform="translate(8.206 -4.039)">
        <path id="Path_2" data-name="Path 2" d="M0,0A3.188,3.188,0,0,0,.31.218.786.786,0,0,0,.732.324.675.675,0,0,0,1.288.042a3.8,3.8,0,0,0,.458-.873l.211-.535-2.97-6.545H.9L2.787-3.392,4.448-7.911H6.264l-2.759,6.6q-.2.492-.394,1.013a5.031,5.031,0,0,1-.486.964,2.483,2.483,0,0,1-.711.725,1.885,1.885,0,0,1-1.069.282,2.8,2.8,0,0,1-.936-.134,2.1,2.1,0,0,1-.655-.373Z" fill="#989b9b"/>
      </g>
    </g>
    <g id="Group_4" data-name="Group 4" transform="translate(18.411 -14.737)">
      <path id="Path_4" data-name="Path 4" d="M0,0H1.647l2.6,4.434L6.812,0H8.459L8.91,9.388H7.179l-.31-6.5L4.617,6.714H3.786L1.52,2.984l-.31,6.4H-.45Z" fill="#989b9b"/>
    </g>
    <g id="Group_6" data-name="Group 6" clip-path="url(#clip-path)">
      <g id="Group_5" data-name="Group 5" transform="translate(32.909 -5.968)">
        <path id="Path_5" data-name="Path 5" d="M0,0A2.27,2.27,0,0,1-.817.577,2.879,2.879,0,0,1-2.041.83,2.683,2.683,0,0,1-2.85.7,2.3,2.3,0,0,1-3.582.317a1.94,1.94,0,0,1-.535-.669,2.115,2.115,0,0,1-.2-.957A2.307,2.307,0,0,1-4.11-2.315a2.1,2.1,0,0,1,.591-.747A2.63,2.63,0,0,1-2.6-3.519a4.251,4.251,0,0,1,1.183-.155c.131,0,.276,0,.435.007s.315.012.465.022L0-3.617v-.155a.9.9,0,0,0-.394-.774,1.726,1.726,0,0,0-1.027-.282,2.881,2.881,0,0,0-1.127.183,4.968,4.968,0,0,0-.745.394l-.761-1.126q.2-.141.451-.288a3.471,3.471,0,0,1,.591-.268,4.986,4.986,0,0,1,.781-.2A6.147,6.147,0,0,1-1.2-6.208,3.554,3.554,0,0,1-.05-6.032a2.64,2.64,0,0,1,.88.493,2.159,2.159,0,0,1,.564.76,2.355,2.355,0,0,1,.2.965V.619H.042ZM0-2.365l-.493-.028c-.131-.009-.269-.016-.415-.021s-.27-.007-.373-.007A1.592,1.592,0,0,0-2.407-2.1a.986.986,0,0,0-.324.725.8.8,0,0,0,.3.661,1.416,1.416,0,0,0,.894.24,1.667,1.667,0,0,0,.57-.1A1.682,1.682,0,0,0-.478-.845a1.461,1.461,0,0,0,.344-.393A.928.928,0,0,0,0-1.717Z" fill="#989b9b"/>
      </g>
    </g>
    <path id="Path_7" data-name="Path 7" d="M35.471-14.737h1.576v3.265H35.471Z" fill="#989b9b"/>
    <g id="Group_9" data-name="Group 9" clip-path="url(#clip-path)">
      <g id="Group_7" data-name="Group 7" transform="translate(42.227 -5.968)">
        <path id="Path_8" data-name="Path 8" d="M0,0A2.288,2.288,0,0,1-.817.577,2.885,2.885,0,0,1-2.041.83,2.689,2.689,0,0,1-2.851.7,2.32,2.32,0,0,1-3.583.317a1.964,1.964,0,0,1-.535-.669,2.115,2.115,0,0,1-.2-.957,2.321,2.321,0,0,1,.211-1.006,2.088,2.088,0,0,1,.592-.747A2.621,2.621,0,0,1-2.6-3.519a4.244,4.244,0,0,1,1.182-.155c.131,0,.277,0,.436.007s.314.012.465.022L0-3.617v-.155a.9.9,0,0,0-.4-.774,1.724,1.724,0,0,0-1.027-.282,2.875,2.875,0,0,0-1.126.183,4.981,4.981,0,0,0-.746.394l-.76-1.126q.2-.141.45-.288a3.447,3.447,0,0,1,.592-.268,4.972,4.972,0,0,1,.78-.2A6.159,6.159,0,0,1-1.2-6.208,3.558,3.558,0,0,1-.05-6.032a2.64,2.64,0,0,1,.88.493,2.144,2.144,0,0,1,.563.76,2.356,2.356,0,0,1,.2.965V.619H.042ZM0-2.365l-.493-.028c-.132-.009-.27-.016-.415-.021s-.27-.007-.373-.007A1.6,1.6,0,0,0-2.408-2.1a.988.988,0,0,0-.323.725.8.8,0,0,0,.3.661,1.413,1.413,0,0,0,.893.24,1.677,1.677,0,0,0,.571-.1A1.676,1.676,0,0,0-.479-.845a1.448,1.448,0,0,0,.345-.393A.928.928,0,0,0,0-1.717Z" fill="#989b9b"/>
      </g>
      <g id="Group_8" data-name="Group 8" transform="translate(45.422 -11.95)">
        <path id="Path_9" data-name="Path 9" d="M0,0H1.59l.042.746a3.925,3.925,0,0,1,.3-.3A2.341,2.341,0,0,1,2.357.161a2.6,2.6,0,0,1,1.26-.3A2.372,2.372,0,0,1,5.5.6,2.916,2.916,0,0,1,6.151,2.59V6.6H4.49v-4a1.325,1.325,0,0,0-.345-.979,1.213,1.213,0,0,0-.894-.344,1.535,1.535,0,0,0-.633.133,1.484,1.484,0,0,0-.507.374,1.781,1.781,0,0,0-.331.556,1.907,1.907,0,0,0-.12.682V6.6H0Z" fill="#989b9b"/>
      </g>
    </g>
    <path id="Path_11" data-name="Path 11" d="M60.315-14.737h1.576v3.265H60.315Zm2.392,0h1.577v3.265H62.707Z" fill="#989b9b"/>
    <g id="Group_14" data-name="Group 14" clip-path="url(#clip-path)">
      <g id="Group_10" data-name="Group 10" transform="translate(67.858 -17.665)">
        <path id="Path_12" data-name="Path 12" d="M0,0A19.567,19.567,0,0,1-2.815.915V.225A19.583,19.583,0,0,0,0-.689ZM.071,1.3a19.668,19.668,0,0,1-2.815.914V1.52A19.4,19.4,0,0,0,.071.605Z" fill="#989b9b"/>
      </g>
      <g id="Group_11" data-name="Group 11" transform="translate(68.394 -5.348)">
        <path id="Path_13" data-name="Path 13" d="M0,0A2.849,2.849,0,0,1-1.844-.528a1.874,1.874,0,0,1-.661-1.513L-2.59-8.98l1.436-.254L-1.21-2.717a1.025,1.025,0,0,0,.281.81A1.4,1.4,0,0,0,0-1.661l.225.141V-.141Z" fill="#989b9b"/>
      </g>
      <g id="Group_12" data-name="Group 12" transform="translate(75.53 -5.348)">
        <path id="Path_14" data-name="Path 14" d="M0,0C-.337,0-.657-.014-.957-.042A5.834,5.834,0,0,1-1.829-.19,6.331,6.331,0,0,1-2.66-.458a7.323,7.323,0,0,1-.844-.4A6.808,6.808,0,0,1-7.136,0l-.225-.141V-1.52l.225-.141q.633,0,1.175-.035a9.926,9.926,0,0,0,1.035-.12A9.109,9.109,0,0,1-6.531-3.773l.225-1.308a4.165,4.165,0,0,1,1.26-.577,5.626,5.626,0,0,1,1.555-.211,4.256,4.256,0,0,1,2.112.443,1.344,1.344,0,0,1,.774,1.2A2.127,2.127,0,0,1-1-3.04,5.974,5.974,0,0,1-2.153-1.816a8.813,8.813,0,0,0,.964.12q.5.035,1.189.035l.225.141V-.141ZM-5.194-3.983a3.77,3.77,0,0,0,.345.485q.2.247.429.472a5.422,5.422,0,0,0,.465.415,4.212,4.212,0,0,0,.451.317,5.73,5.73,0,0,0,.527-.359A6.55,6.55,0,0,0-2.442-3.1a4.769,4.769,0,0,0,.415-.436.587.587,0,0,0,.169-.317c0-.14-.157-.258-.471-.352a4.154,4.154,0,0,0-1.162-.14,4.864,4.864,0,0,0-1,.1,1.934,1.934,0,0,0-.7.268" fill="#989b9b"/>
      </g>
      <g id="Group_13" data-name="Group 13" transform="translate(79.949 -5.236)">
        <path id="Path_15" data-name="Path 15" d="M0,0A2.975,2.975,0,0,1-1.323-.3a3.2,3.2,0,0,1-1.07-.859,2.616,2.616,0,0,1-.886.8,2.458,2.458,0,0,1-1.14.246l-.226-.141V-1.633l.226-.141a2.1,2.1,0,0,0,.478-.049,1.135,1.135,0,0,0,.38-.162,1.378,1.378,0,0,0,.317-.3,4.343,4.343,0,0,0,.317-.486l.745-1.309A2.537,2.537,0,0,1-.042-5.673a1.8,1.8,0,0,1,.915.254,2.559,2.559,0,0,1,.76.682A3.461,3.461,0,0,1,2.147-3.73a3.882,3.882,0,0,1,.19,1.224A2.6,2.6,0,0,1,1.718-.662,2.241,2.241,0,0,1,0,0M-1.689-2.435a2.085,2.085,0,0,0,.76.619,2.2,2.2,0,0,0,1,.239,1.045,1.045,0,0,0,.774-.281A1.009,1.009,0,0,0,1.126-2.6a1.553,1.553,0,0,0-.1-.556,1.542,1.542,0,0,0-.275-.465,1.3,1.3,0,0,0-.4-.317,1.07,1.07,0,0,0-.479-.112Q-.873-4.054-1.408-3Z" fill="#989b9b"/>
      </g>
    </g>
    <path id="Path_17" data-name="Path 17" d="M82.5-14.737h1.577v3.265H82.5Zm2.393,0h1.577v3.265H84.89Z" fill="#989b9b"/>
    <g id="Group_25" data-name="Group 25" clip-path="url(#clip-path)">
      <g id="Group_15" data-name="Group 15" transform="translate(94.982 -9.571)">
        <path id="Path_18" data-name="Path 18" d="M0,0A9.124,9.124,0,0,1,.372.9q.177.492.3.985c.083.328.152.65.2.964a5.314,5.314,0,0,1,.077.838A3.236,3.236,0,0,1,.676,5.039,3.177,3.177,0,0,1-.106,6.1a3.6,3.6,0,0,1-1.2.69,4.589,4.589,0,0,1-1.528.246A4.9,4.9,0,0,1-4.385,6.8a3.393,3.393,0,0,1-1.19-.668,2.985,2.985,0,0,1-.759-1.042A3.332,3.332,0,0,1-6.6,3.73,4.686,4.686,0,0,1-6.3,2.1a5.375,5.375,0,0,1,.837-1.5l.887.549A4.171,4.171,0,0,0-5.236,3.28a1.906,1.906,0,0,0,.647,1.527,2.614,2.614,0,0,0,1.759.556,4.079,4.079,0,0,0,.978-.113,3.075,3.075,0,0,0,.8-.31A1.9,1.9,0,0,0-.5,4.49a.858.858,0,0,0,.2-.549,3.178,3.178,0,0,0-.07-.591,7.16,7.16,0,0,0-.2-.774C-.66,2.294-.768,2-.894,1.682s-.265-.635-.415-.965ZM-2.83-.366l-1.055-1.07L-2.83-2.505l1.056,1.069ZM2,4.223A3.021,3.021,0,0,1,.605,3.906a1.826,1.826,0,0,1-.887-.993l.9-1.167q0,.816,1.38.815l.224.141v1.38Z" fill="#989b9b"/>
      </g>
      <g id="Group_16" data-name="Group 16" transform="translate(101.4 -5.236)">
        <path id="Path_19" data-name="Path 19" d="M0,0A2.975,2.975,0,0,1-1.323-.3a3.2,3.2,0,0,1-1.069-.859,2.628,2.628,0,0,1-.887.8,2.458,2.458,0,0,1-1.14.246l-.226-.141V-1.633l.226-.141a2.1,2.1,0,0,0,.478-.049,1.135,1.135,0,0,0,.38-.162,1.378,1.378,0,0,0,.317-.3,4.343,4.343,0,0,0,.317-.486l.746-1.309A2.534,2.534,0,0,1-.042-5.673a1.8,1.8,0,0,1,.915.254,2.559,2.559,0,0,1,.76.682A3.461,3.461,0,0,1,2.147-3.73a3.882,3.882,0,0,1,.19,1.224A2.591,2.591,0,0,1,1.718-.662,2.241,2.241,0,0,1,0,0M-1.689-2.435a2.08,2.08,0,0,0,.761.619,2.2,2.2,0,0,0,1,.239,1.045,1.045,0,0,0,.774-.281A1.009,1.009,0,0,0,1.126-2.6a1.553,1.553,0,0,0-.1-.556,1.542,1.542,0,0,0-.275-.465,1.3,1.3,0,0,0-.4-.317,1.066,1.066,0,0,0-.478-.112Q-.873-4.054-1.408-3Z" fill="#989b9b"/>
      </g>
      <g id="Group_17" data-name="Group 17" transform="translate(114.814 -5.348)">
        <path id="Path_20" data-name="Path 20" d="M0,0A2.657,2.657,0,0,1-1.718-.521,2.277,2.277,0,0,1-3.406.113,3.027,3.027,0,0,1-4.7-.169a3.192,3.192,0,0,1-1.07-.817l-.267.536a.324.324,0,0,0-.035.1A1.087,1.087,0,0,0-6.08-.2l-.015,5.545H-7.348l-.1-5.6A1.907,1.907,0,0,1-7.4-.725a1.713,1.713,0,0,1,.2-.443l1.605-2.8A2.58,2.58,0,0,1-3.449-5.56a1.793,1.793,0,0,1,.916.254,2.568,2.568,0,0,1,.759.682A3.437,3.437,0,0,1-1.26-3.617a3.882,3.882,0,0,1,.19,1.224c0,.084,0,.167-.007.247s-.012.157-.021.232A1.864,1.864,0,0,0,0-1.661l.225.141V-.141ZM-5.1-2.322a2.1,2.1,0,0,0,.761.619,2.213,2.213,0,0,0,1,.239,1.042,1.042,0,0,0,.774-.282,1,1,0,0,0,.282-.745,1.545,1.545,0,0,0-.1-.556,1.53,1.53,0,0,0-.275-.465,1.3,1.3,0,0,0-.4-.317,1.06,1.06,0,0,0-.479-.112q-.746,0-1.281,1.056Z" fill="#989b9b"/>
      </g>
      <g id="Group_18" data-name="Group 18" transform="translate(120.614 -5.348)">
        <path id="Path_21" data-name="Path 21" d="M0,0A5.441,5.441,0,0,1-1.513-.183,2.6,2.6,0,0,1-2.632-.858a2.9,2.9,0,0,1-1.232.647A7.436,7.436,0,0,1-5.8,0l-.226-.141V-1.52l.226-.141a8.4,8.4,0,0,0,1.435-.1,3,3,0,0,0,.887-.282L-5.349-5.476l.225-1.407q1.2-.675,2.421-1.267T-.268-9.234L.014-7.783q-.619.238-1.14.443t-1,.408q-.479.2-.943.422l-.971.458,1.8,3.293a2.823,2.823,0,0,0,.374.549,1.355,1.355,0,0,0,.45.331,2.182,2.182,0,0,0,.6.169A5.721,5.721,0,0,0,0-1.661l.225.141V-.141Z" fill="#989b9b"/>
      </g>
      <g id="Group_19" data-name="Group 19" transform="translate(125.272 -5.348)">
        <path id="Path_22" data-name="Path 22" d="M0,0A3.354,3.354,0,0,1-1.372-.239a1.919,1.919,0,0,1-.837-.718,1.955,1.955,0,0,1-1.007.725A4.392,4.392,0,0,1-4.659,0l-.225-.141V-1.52l.225-.141a2.629,2.629,0,0,0,1.295-.232.9.9,0,0,0,.451-.6c.018-.113.042-.242.07-.387s.054-.3.077-.458.047-.317.071-.471.044-.293.063-.416l1.211.155q-.1.774-.134,1.155c-.024.253-.035.4-.035.45q0,.8,1.59.8l.226.141V-.141ZM-1.351,3.223l-.9-.914-.9.914-1.056-1.07,1.056-1.069.9.915.9-.915L-.295,2.153Z" fill="#989b9b"/>
      </g>
      <g id="Group_20" data-name="Group 20" transform="translate(125.047 -5.489)">
        <path id="Path_23" data-name="Path 23" d="M0,0V-1.379L.225-1.52a4.539,4.539,0,0,0,1.556-.218q.584-.219.584-.528a2.841,2.841,0,0,0-.071-.584,7.21,7.21,0,0,0-.19-.7,7.96,7.96,0,0,0-.288-.76c-.113-.258-.235-.5-.366-.739l1.309-.732a6.021,6.021,0,0,1,.338.76c.1.281.194.568.274.859a7.149,7.149,0,0,1,.183.866,5.271,5.271,0,0,1,.063.78A2.415,2.415,0,0,1,2.808-.5,4.16,4.16,0,0,1,.225.141ZM2.984-6.672l-.9-.915-.9.915L.126-7.742,1.182-8.811l.9.915.9-.915L4.04-7.742Z" fill="#989b9b"/>
      </g>
      <g id="Group_21" data-name="Group 21" transform="translate(131.986 -15.863)">
        <path id="Path_24" data-name="Path 24" d="M0,0A9.482,9.482,0,0,0-1.175.148q-.542.106-1.063.26l-.239-.576c.254-.1.483-.188.689-.254a.868.868,0,0,1-.464-.8A1.08,1.08,0,0,1-2.16-1.66a1.178,1.178,0,0,1,.253-.374,1.19,1.19,0,0,1,.373-.253,1.156,1.156,0,0,1,.465-.092,1.145,1.145,0,0,1,.886.409l-.352.464A1.4,1.4,0,0,0-.767-1.6a.846.846,0,0,0-.246-.035.626.626,0,0,0-.408.126.389.389,0,0,0-.155.31.372.372,0,0,0,.218.324,1.682,1.682,0,0,0,.584.183c.159-.028.312-.052.458-.07S-.028-.792.113-.8ZM.69,10.515a2.849,2.849,0,0,1-1.844-.528,1.874,1.874,0,0,1-.661-1.513L-1.9,1.535l1.436-.254L-.52,7.8a1.022,1.022,0,0,0,.281.809,1.4,1.4,0,0,0,.929.247l.225.14v1.38Z" fill="#989b9b"/>
      </g>
      <g id="Group_22" data-name="Group 22" transform="translate(135.252 -2.125)">
        <path id="Path_25" data-name="Path 25" d="M0,0-.9-.915-1.8,0-2.857-1.07-1.8-2.139l.9.914L0-2.139,1.056-1.07ZM-2.8-3.364v-1.38l.225-.141A4.556,4.556,0,0,0-1.021-5.1c.39-.146.584-.322.584-.528a2.9,2.9,0,0,0-.069-.584c-.048-.221-.111-.455-.191-.7a7.974,7.974,0,0,0-.289-.76,8.19,8.19,0,0,0-.365-.739l1.309-.732a5.82,5.82,0,0,1,.338.76c.1.281.194.568.274.858a7.432,7.432,0,0,1,.183.866,5.434,5.434,0,0,1,.064.781,2.421,2.421,0,0,1-.81,2.02,4.162,4.162,0,0,1-2.583.641Z" fill="#989b9b"/>
      </g>
      <g id="Group_23" data-name="Group 23" transform="translate(10.76 -81.577)">
        <path id="Path_26" data-name="Path 26" d="M0,0A10.767,10.767,0,0,1-3.723-.708a1.745,1.745,0,0,1-1.192-1.6,1.446,1.446,0,0,1,.782-1.266,3.924,3.924,0,0,1,2.085-.484,5.226,5.226,0,0,1,2.867.781L3.053-6.293A6.526,6.526,0,0,0,.67-8.731a6.353,6.353,0,0,0-3.276-.875,6.254,6.254,0,0,0-2.532.521A6.45,6.45,0,0,0-7.223-7.633a7.063,7.063,0,0,0-1.415,2.16,6.6,6.6,0,0,0-.521,2.606A5.7,5.7,0,0,0-8.545-.149,6.175,6.175,0,0,0-6.888,1.824q-.969.336-1.936.727t-1.936.8l1.824,4.244A60.981,60.981,0,0,1-2.457,6.069a60.851,60.851,0,0,1,6.478-.782L4.8-.633Q3.61-.558,2.4-.391T0,0" fill="#e75f4a"/>
      </g>
      <g id="Group_24" data-name="Group 24" transform="translate(78.97 -87.832)">
        <path id="Path_27" data-name="Path 27" d="M0,0A7.533,7.533,0,0,0-2.1-2.439a4.7,4.7,0,0,0-2.848-.912A6.114,6.114,0,0,0-7.763-2.7,6.856,6.856,0,0,0-9.979-.913,8.385,8.385,0,0,0-11.43,1.8a10.942,10.942,0,0,0-.522,3.445,8.875,8.875,0,0,0,.41,2.755,6.617,6.617,0,0,0,1.154,2.178A5.13,5.13,0,0,0-8.582,11.6a5.452,5.452,0,0,0,2.364.5,5.248,5.248,0,0,0,3.76-1.452A5.188,5.188,0,0,1-5.511,13.8a18.73,18.73,0,0,1-6.627,1.172l2.2,5.585A13.294,13.294,0,0,0-5.1,19.491a10.81,10.81,0,0,0,3.686-2.625A11.611,11.611,0,0,0,.931,12.882,15.3,15.3,0,0,0,1.75,7.744,19.341,19.341,0,0,0,1.3,3.537,12.935,12.935,0,0,0,0,0M-3.649,6.776a7.712,7.712,0,0,1-1.526.149,3.254,3.254,0,0,1-2.011-.54,1.677,1.677,0,0,1-.708-1.4,2.27,2.27,0,0,1,.727-1.75,2.716,2.716,0,0,1,1.917-.67q2.309,0,2.942,3.723a4.517,4.517,0,0,1-1.341.484" fill="#e75f4a"/>
      </g>
    </g>
    <g id="Group_26" data-name="Group 26" transform="translate(101.161 -98.519)">
      <path id="Path_29" data-name="Path 29" d="M0,0-3.686-3.649-7.372,0l3.686,3.649Z" fill="#e75f4a"/>
    </g>
    <g id="Group_27" data-name="Group 27" transform="translate(122.383 -96.545)">
      <path id="Path_30" data-name="Path 30" d="M0,0-3.686-3.648-7.372,0l3.686,3.649Z" fill="#e75f4a"/>
    </g>
    <g id="Group_30" data-name="Group 30" clip-path="url(#clip-path)">
      <g id="Group_28" data-name="Group 28" transform="translate(104.028 -83.551)">
        <path id="Path_31" data-name="Path 31" d="M0,0Q-.858-2.346-1.732-4.766T-3.426-9.643l-5.1,2.382q.892,2.534,1.787,4.822t2.048,4.822a10.086,10.086,0,0,1-2.123.41Q-8.007,2.9-9.308,2.9q-1.452,0-2.979-.111a20.627,20.627,0,0,1-2.457-.3l1.3,6.33a20.1,20.1,0,0,0,2.476.279q1.508.093,2.923.093a13.04,13.04,0,0,0,3.667-.484,6.1,6.1,0,0,0,2.737-1.6,6.891,6.891,0,0,0,2.7,1.378,11.908,11.908,0,0,0,2.129.317L.007.017A.122.122,0,0,1,0,0" fill="#e75f4a"/>
      </g>
      <g id="Group_29" data-name="Group 29" transform="translate(125.418 -88.131)">
        <path id="Path_32" data-name="Path 32" d="M0,0A8.693,8.693,0,0,1-1.192-.242Q-1.805-.41-2.513-.651t-1.6-.615a34.549,34.549,0,0,0-3.928-1.4,10.339,10.339,0,0,0-2.625-.391,6.367,6.367,0,0,0-3.8,1.229A8.4,8.4,0,0,0-17.183,1.6L-14.2,3.872a3.533,3.533,0,0,1,1.154-.8,3.983,3.983,0,0,1,1.489-.242,5.529,5.529,0,0,1,.707.055q.409.055,1.025.2t1.489.422q.875.276,2.1.68-.82.262-1.564.524t-1.49.562q-1.824.714-3.742,1.274a16.472,16.472,0,0,1-4.6.562,11.551,11.551,0,0,1-1.178-.052l2.285,6.311a15.751,15.751,0,0,0,2.263-.283,18.428,18.428,0,0,0,2.9-.837A22.675,22.675,0,0,0-8.75,11.059q1.248-.672,2.476-1.378,1.786-1.042,3.742-2.048A20.9,20.9,0,0,1,1.955,5.994V.075H1.21A9.381,9.381,0,0,1,0,0" fill="#e75f4a"/>
      </g>
    </g>
    <g id="Group_31" data-name="Group 31" transform="translate(131.207 -74.727)">
      <path id="Path_34" data-name="Path 34" d="M0,0H4.617l.372-25.169L-.372-24.2Z" fill="#e75f4a"/>
    </g>
    <g id="Group_35" data-name="Group 35" clip-path="url(#clip-path)">
      <g id="Group_32" data-name="Group 32" transform="translate(136.048 -105.201)">
        <path id="Path_35" data-name="Path 35" d="M0,0Q-.558.056-1.117.167-3.5.019-3.5-.95a.717.717,0,0,1,.372-.614,1.828,1.828,0,0,1,1.006-.242A2.32,2.32,0,0,1-.782-1.4L.223-2.849A3.044,3.044,0,0,0-.856-4a2.871,2.871,0,0,0-1.527-.41,2.9,2.9,0,0,0-1.21.262A3.209,3.209,0,0,0-4.6-3.445,3.3,3.3,0,0,0-5.269-2.4a3.34,3.34,0,0,0-.242,1.266A2.477,2.477,0,0,0-5.231.056a2.965,2.965,0,0,0,.8.931q-.894.3-1.787.669l.856,1.9a24.462,24.462,0,0,1,3.016-.671Q-.894,2.662.745,2.55L1.117-.093C.745-.068.372-.038,0,0" fill="#e75f4a"/>
      </g>
      <g id="Group_33" data-name="Group 33" transform="translate(59.572 -82.024)">
        <path id="Path_36" data-name="Path 36" d="M0,0A11.718,11.718,0,0,1-4.1-.819,1.959,1.959,0,0,1-5.4-2.606,1.862,1.862,0,0,1-4.356-4.263a4.9,4.9,0,0,1,2.532-.615,5.213,5.213,0,0,1,2.866.783L3.277-7.111A6.529,6.529,0,0,0,.894-9.55a6.354,6.354,0,0,0-3.277-.875,6.679,6.679,0,0,0-2.848.614,7.286,7.286,0,0,0-2.29,1.657A8.005,8.005,0,0,0-9.066-5.7a7.9,7.9,0,0,0-.577,3.015A6.592,6.592,0,0,0-8.675.931Q-9.457,1.006-10.2,1h-1.489c-.187,0-.36-.007-.53-.015l-3.553,5.317c.079.042.148.1.229.134a8.868,8.868,0,0,0,3.854.857q2.047,0,4.189-.187t4.17-.521Q-1.3,6.256.5,5.79A25.418,25.418,0,0,0,3.686,4.766L4.431-.782q-1.155.223-2.253.41T0,0" fill="#e75f4a"/>
      </g>
      <g id="Group_34" data-name="Group 34" transform="translate(45.908 -83.067)">
        <path id="Path_37" data-name="Path 37" d="M0,0A11.83,11.83,0,0,0-.558-3.686,9.687,9.687,0,0,0-2.1-6.665,7.473,7.473,0,0,0-4.412-8.657,5.826,5.826,0,0,0-7.26-9.383a5.243,5.243,0,0,0-3.184,1.247,12.323,12.323,0,0,0-3.034,3.742l.409-12.435-5.361.968.521,17.908h-1.936a3.337,3.337,0,0,1-2.271-.614,2.328,2.328,0,0,1-.633-1.88l.223-16.382-5.361.968.3,18.43A5.15,5.15,0,0,0-25.411,6.8,9.188,9.188,0,0,0-19.845,8.34h7.856c3.669,0,6.52-.635,8.575-1.888L-.131,1.54A9.57,9.57,0,0,0,0,0M-5.008.987a2.65,2.65,0,0,1-1.284.67,11.275,11.275,0,0,1-2.29.316q-1.4.075-3.407.074h-1.228a15.355,15.355,0,0,1,2.866-3.778,4.43,4.43,0,0,1,2.942-1.36,2.361,2.361,0,0,1,1.1.261,3.122,3.122,0,0,1,.875.67,3.259,3.259,0,0,1,.6.95,2.847,2.847,0,0,1,.223,1.1,1.566,1.566,0,0,1-.391,1.1" fill="#e75f4a"/>
      </g>
    </g>
    <g id="Group_36" data-name="Group 36" transform="translate(104.546 -52.074)">
      <path id="Path_39" data-name="Path 39" d="M0,0-2.876-4.482h-7.6L-3.6,5.387Z" fill="#e75f4a"/>
    </g>
    <g id="Group_37" data-name="Group 37" transform="translate(116.127 -56.556)">
      <path id="Path_40" data-name="Path 40" d="M0,0H-6.864l-3.728,6.027-3.554,5.332-7.91,11.881h6.76L-10.8,16.1l4.634,7.143h7.7L-7.213,10.766Z" fill="#e75f4a"/>
    </g>
    <g id="Group_38" data-name="Group 38" transform="translate(172.64 -56.556)">
      <path id="Path_41" data-name="Path 41" d="M0,0-8.536,23.24H-2.16l1.533-4.809h6.05L4.137,13.937H.627L3.31,5.4l2.578,8.536,1.255,4.494,1.5,4.809H15.3L7.073,0Z" fill="#e75f4a"/>
    </g>
    <g id="Group_39" data-name="Group 39" transform="translate(0 -56.556)">
      <path id="Path_42" data-name="Path 42" d="M0,0V5.4H7.142V23.24h6.237V5.4h7.073V0Z" fill="#e75f4a"/>
    </g>
    <g id="Group_40" data-name="Group 40" transform="translate(23.239 -56.556)">
      <path id="Path_43" data-name="Path 43" d="M0,0H6.167V8.5h8.571V0h6.167V23.24H14.738V14.146H6.167V23.24H0Z" fill="#e75f4a"/>
    </g>
    <g id="Group_41" data-name="Group 41" transform="translate(48.325 -56.556)">
      <path id="Path_44" data-name="Path 44" d="M0,0H16.724V5.331H6.167V8.92h8.676v5.017H6.167v3.972H17.456V23.24H0Z" fill="#e75f4a"/>
    </g>
    <g id="Group_42" data-name="Group 42" transform="translate(75.292 -56.556)">
      <path id="Path_45" data-name="Path 45" d="M0,0H16.724V5.331H6.167V8.92h8.676v5.017H6.167v3.972H17.456V23.24H0Z" fill="#e75f4a"/>
    </g>
    <g id="Group_44" data-name="Group 44" clip-path="url(#clip-path)">
      <g id="Group_43" data-name="Group 43" transform="translate(138.704 -37.637)">
        <path id="Path_46" data-name="Path 46" d="M0,0A12.618,12.618,0,0,1-10.348,4.912a12.916,12.916,0,0,1-4.913-.906A11.245,11.245,0,0,1-19.076,1.5,11.355,11.355,0,0,1-21.55-2.335a13.16,13.16,0,0,1-.888-4.913,13.428,13.428,0,0,1,.871-4.895,11.519,11.519,0,0,1,2.474-3.9,11.259,11.259,0,0,1,3.832-2.578,12.714,12.714,0,0,1,4.913-.924,15.256,15.256,0,0,1,5.61,1.011A9.6,9.6,0,0,1-.383-15.017L-4.46-10.906a7.822,7.822,0,0,0-2.334-2.125,5.992,5.992,0,0,0-3.1-.8,6.656,6.656,0,0,0-2.613.487,5.414,5.414,0,0,0-1.934,1.359,6.1,6.1,0,0,0-1.2,2.038,7.44,7.44,0,0,0-.418,2.527,7.419,7.419,0,0,0,.435,2.577,6.112,6.112,0,0,0,1.238,2.057,5.59,5.59,0,0,0,1.933,1.358A6.309,6.309,0,0,0-9.93-.941a6.688,6.688,0,0,0,3.293-.714A8.791,8.791,0,0,0-4.146-3.9Z" fill="#e75f4a"/>
      </g>
    </g>
    <g id="Group_45" data-name="Group 45" transform="translate(140.969 -56.556)">
      <path id="Path_48" data-name="Path 48" d="M0,0H6.167V8.5h8.571V0h6.167V23.24H14.738V14.146H6.167V23.24H0Z" fill="#e75f4a"/>
    </g>
    <g id="Group_46" data-name="Group 46" transform="translate(190.165 -56.556)">
      <path id="Path_49" data-name="Path 49" d="M0,0H5.609l8.92,12.961V0h6.1V23.24H15.365L6.1,9.9V23.24H0Z" fill="#e75f4a"/>
    </g>
    <g id="Group_47" data-name="Group 47" transform="translate(240.162 -56.556)">
      <path id="Path_50" data-name="Path 50" d="M0,0V23.24H17.456V17.909H6.167V13.937h8.676V8.92H6.167V5.331H16.725V0Z" fill="#e75f4a"/>
    </g>
    <g id="Group_50" data-name="Group 50" clip-path="url(#clip-path)">
      <g id="Group_48" data-name="Group 48" transform="translate(220.593 -46.593)">
        <path id="Path_51" data-name="Path 51" d="M0,0A7.17,7.17,0,0,1,.233-.851a6.19,6.19,0,0,1,1.2-2.091A5.653,5.653,0,0,1,3.369-4.353a6.325,6.325,0,0,1,2.647-.523,5.755,5.755,0,0,1,2.875.7A10.745,10.745,0,0,1,11.208-2.4l4.007-4.042a9.5,9.5,0,0,0-4.234-3.188,15.16,15.16,0,0,0-5.417-.958,12.8,12.8,0,0,0-4.9.906A11.336,11.336,0,0,0-3.147-7.158,11.372,11.372,0,0,0-5.638-3.291,12.663,12.663,0,0,0-6.43,0Z" fill="#e75f4a"/>
      </g>
      <g id="Group_49" data-name="Group 49" transform="translate(226.818 -46.591)">
        <path id="Path_52" data-name="Path 52" d="M0,0V4.773H4.042V7a6.237,6.237,0,0,1-2.021.976,8.481,8.481,0,0,1-2.195.279,6.748,6.748,0,0,1-2.579-.471A5.467,5.467,0,0,1-4.7,6.463,6.114,6.114,0,0,1-5.958,4.408a7.617,7.617,0,0,1-.453-2.7c0-.011,0-.022,0-.033h-6.34a14.84,14.84,0,0,0,.817,5.015A10.421,10.421,0,0,0-9.547,10.54a10.539,10.539,0,0,0,3.816,2.438,14.167,14.167,0,0,0,5.069.854,19.332,19.332,0,0,0,5.418-.784,12.821,12.821,0,0,0,4.791-2.561V0Z" fill="#e75f4a"/>
      </g>
    </g>
  </g>
</svg>
